<svg width="22" height="22" viewBox="0 0 18 22" fill="none" xmlns="http://www.w3.org/2000/svg">
<path fill-rule="evenodd" clip-rule="evenodd" d="M9.67374 15.0149C24.6915 4.65016 13.51 -3.28222 9 1.35566C4.48862 -3.28222 -6.69288 4.65016 8.32625 15.0149L8.0045 15.6584C7.98427 15.6989 7.97221 15.7429 7.96901 15.788C7.9658 15.8331 7.97151 15.8784 7.98581 15.9213C8.01469 16.0079 8.07681 16.0796 8.1585 16.1204C8.24018 16.1613 8.33475 16.168 8.42139 16.1391C8.50803 16.1102 8.57965 16.0481 8.6205 15.9664L8.6755 15.8564C8.68787 16.0902 8.7085 16.2895 8.74562 16.4752C8.83912 16.9482 9.03162 17.3304 9.36162 17.9904L9.3795 18.0289C9.671 18.6092 9.62975 19.1977 9.44825 19.7422C9.26262 20.2949 8.94499 20.7748 8.71399 21.1213C8.66331 21.1971 8.64482 21.29 8.66262 21.3795C8.68041 21.469 8.73302 21.5477 8.80887 21.5984C8.88472 21.6491 8.9776 21.6676 9.06708 21.6498C9.15656 21.632 9.23531 21.5794 9.286 21.5035L9.2915 21.4939C9.51975 21.1529 9.88412 20.6057 10.1 19.9608C10.32 19.3022 10.3915 18.5157 9.9955 17.7209C9.64075 17.0128 9.49362 16.7144 9.41937 16.3404C9.39277 16.2094 9.37577 16.0766 9.36849 15.943L9.3795 15.9664C9.42034 16.0481 9.49196 16.1102 9.5786 16.1391C9.66524 16.168 9.75981 16.1613 9.8415 16.1204C9.92318 16.0796 9.9853 16.0079 10.0142 15.9213C10.0431 15.8347 10.0363 15.7401 9.9955 15.6584L9.67374 15.0149ZM7.24824 1.74478C5.64362 0.906034 3.39824 1.54953 2.49899 3.30541C2.17312 3.94203 2.00399 4.79041 2.22124 5.84916C2.29687 6.22041 2.86337 6.12003 2.94587 5.75153C3.33774 4.02453 4.56424 2.36628 7.05574 2.27553C7.37749 2.26453 7.53424 1.89328 7.24824 1.74478Z" fill="#ED3C3F"/>
</svg>
