<svg width="16" height="16" viewBox="0 0 16 16" fill="none" xmlns="http://www.w3.org/2000/svg">
<g clip-path="url(#clip0_202_2)">
<path d="M6.5 4.48199C8.164 2.80899 12.325 5.73599 6.5 9.49999C0.675001 5.73599 4.836 2.80999 6.5 4.48199Z" fill="#ED3C3F"/>
<path d="M13 6.49999C13.0022 7.88283 12.5613 9.22999 11.742 10.344C11.782 10.374 11.82 10.406 11.857 10.442L15.707 14.292C15.8946 14.4795 16.0001 14.7339 16.0002 14.9991C16.0003 15.2644 15.895 15.5189 15.7075 15.7065C15.52 15.8941 15.2656 15.9996 15.0004 15.9997C14.7351 15.9998 14.4806 15.8945 14.293 15.707L10.443 11.857C10.4068 11.8212 10.3734 11.7828 10.343 11.742H10.345C9.16682 12.6064 7.73174 13.0486 6.27137 12.9972C4.81101 12.9458 3.41057 12.4038 2.29607 11.4587C1.18157 10.5136 0.418035 9.22057 0.128695 7.78823C-0.160644 6.3559 0.0410924 4.86785 0.701346 3.56426C1.3616 2.26066 2.44185 1.21757 3.76775 0.603331C5.09365 -0.0109065 6.58784 -0.160455 8.00918 0.178823C9.43051 0.518101 10.6961 1.32641 11.6016 2.4733C12.5071 3.62018 12.9997 5.03873 13 6.49999V6.49999ZM6.5 12C7.22227 12 7.93747 11.8577 8.60476 11.5813C9.27205 11.3049 9.87837 10.8998 10.3891 10.3891C10.8998 9.87836 11.3049 9.27204 11.5813 8.60475C11.8577 7.93746 12 7.22227 12 6.49999C12 5.77772 11.8577 5.06253 11.5813 4.39524C11.3049 3.72795 10.8998 3.12163 10.3891 2.61091C9.87837 2.10018 9.27205 1.69506 8.60476 1.41866C7.93747 1.14226 7.22227 0.999995 6.5 0.999995C5.04131 0.999995 3.64236 1.57946 2.61091 2.61091C1.57946 3.64236 1 5.0413 1 6.49999C1 7.95869 1.57946 9.35763 2.61091 10.3891C3.64236 11.4205 5.04131 12 6.5 12V12Z" fill="#858D9E"/>
</g>
<defs>
<clipPath id="clip0_202_2">
<rect width="16" height="16" fill="white"/>
</clipPath>
</defs>
</svg>
